<svg width="34" height="34" fill="none" xmlns="http://www.w3.org/2000/svg"><path d="M33.667 17A16.667 16.667 0 10.334 17a16.667 16.667 0 0033.333 0zm-3.45-1.667h-4.884a21.516 21.516 0 00-3.883-10.9 13.334 13.334 0 018.767 10.9zm-18.084 3.334H22a19.066 19.066 0 01-5 11.016 18.334 18.334 0 01-4.867-11.016zm0-3.334a19 19 0 014.867-11 18.65 18.65 0 015 11h-9.867zm.6-10.95a21.967 21.967 0 00-3.95 10.95h-5a13.333 13.333 0 018.95-10.95zm-8.95 14.284h5A21.433 21.433 0 0012.7 29.6a13.334 13.334 0 01-8.917-10.933zm17.584 10.916a21.9 21.9 0 003.966-10.916h4.917a13.333 13.333 0 01-8.883 10.916z" fill="#F25822"/></svg>