<svg width="11" height="11" viewBox="0 0 11 11" fill="none" xmlns="http://www.w3.org/2000/svg">
<path d="M3.70333 9.16662C4.38106 9.18929 5.05647 9.07588 5.68963 8.83309C6.32279 8.59029 6.90085 8.22304 7.38966 7.75303C7.87847 7.28302 8.2681 6.7198 8.53553 6.09665C8.80295 5.47349 8.94276 4.80305 8.94666 4.12495C9.25725 3.7406 9.48788 3.29804 9.625 2.82328C9.63523 2.78577 9.63441 2.7461 9.62262 2.70905C9.61083 2.672 9.58858 2.63915 9.55856 2.61445C9.52853 2.58975 9.492 2.57426 9.45337 2.56984C9.41474 2.56542 9.37566 2.57226 9.34083 2.58953C9.17834 2.66775 8.99541 2.69301 8.8178 2.66177C8.6402 2.63052 8.47687 2.54434 8.35083 2.41537C8.18993 2.23917 7.99531 2.09707 7.77848 1.99747C7.56166 1.89787 7.32705 1.84281 7.08856 1.83554C6.85006 1.82828 6.61254 1.86896 6.39005 1.95517C6.16757 2.04138 5.96465 2.17138 5.79333 2.33745C5.55875 2.56463 5.38694 2.84862 5.29458 3.16184C5.20222 3.47506 5.19246 3.80684 5.26625 4.12495C3.73083 4.21662 2.67666 3.48787 1.83333 2.4887C1.80799 2.46001 1.77485 2.43932 1.73795 2.42915C1.70105 2.41898 1.66199 2.41978 1.62553 2.43144C1.58908 2.44311 1.55681 2.46514 1.53267 2.49484C1.50852 2.52454 1.49355 2.56063 1.48958 2.5987C1.32892 3.48989 1.44481 4.40891 1.8217 5.23231C2.19858 6.05572 2.8184 6.74408 3.59791 7.20495C3.07525 7.80437 2.34126 8.17875 1.54916 8.24995C1.50673 8.25699 1.46755 8.27712 1.43712 8.30752C1.40669 8.33792 1.38653 8.37708 1.37946 8.41951C1.37239 8.46194 1.37876 8.50552 1.39769 8.54415C1.41661 8.58278 1.44714 8.61453 1.485 8.63495C2.17411 8.97933 2.93298 9.1612 3.70333 9.16662Z" fill="#AAAAAA"/>
</svg>
