<svg width="321" height="76" fill="none" xmlns="http://www.w3.org/2000/svg"><path d="M320.5 38c0 4.947-4.252 9.818-12.357 14.355-8.064 4.514-19.765 8.595-34.268 12.029C244.878 71.248 204.794 75.5 160.5 75.5S76.122 71.249 47.125 64.383C32.622 60.95 20.92 56.87 12.857 52.355 4.752 47.818.5 42.947.5 38c0-4.947 4.252-9.818 12.357-14.355 8.064-4.514 19.765-8.595 34.268-12.028C76.122 4.75 116.206.5 160.5.5s84.378 4.251 113.375 11.117c14.503 3.433 26.204 7.514 34.268 12.028C316.248 28.182 320.5 33.053 320.5 38z" stroke="#F25822"/></svg>